<?xml version="1.0" encoding="utf-8"?>
<!-- Generator: Adobe Illustrator 24.0.1, SVG Export Plug-In . SVG Version: 6.00 Build 0)  -->
<svg version="1.1" id="레이어_1" xmlns="http://www.w3.org/2000/svg" xmlns:xlink="http://www.w3.org/1999/xlink" x="0px"
	 y="0px" viewBox="0 0 58 56" style="enable-background:new 0 0 58 56;" xml:space="preserve">
<style type="text/css">
	.st0{fill-rule:evenodd;clip-rule:evenodd;fill:#B9DCD2;}
</style>
<path class="st0" d="M6.9,0c0.9,0,1.7,0.5,2.5,1.2c3.3,3,6.6,6.1,9.9,9.1c0.5,0.4,1,1,1.1,1.6s-0.2,1.1-0.5,1.6
	c-1.7,2.5-5.3,3.8-5.7,6.8c-0.2,1.5,0.5,3,1.2,4.3c3.8,6.7,9.8,12.2,16.8,15.5c1.5,0.7,3.2,1.3,4.8,1c2.9-0.6,4.3-3.7,6.2-5.9
	c0.4-0.5,0.9-0.9,1.6-1c1.7-0.2,3.7,2.5,4.8,3.5l6.2,5.6c0.9,0.8,1.9,1.7,2.1,2.9c0.3,1.5-0.6,3.1-1.7,4.2c-3,3.2-7.3,4.8-11.6,5
	c-16.3,1-32.4-15.1-39.9-28.2C2.5,23.3,0.6,19,0.1,14.5c-0.5-4.3,0.5-8.6,3.1-12.1c0.6-0.8,1.2-1.5,2.1-2C5.8,0.1,6.4,0,6.9,0"/>
</svg>
