<?xml version="1.0" encoding="utf-8"?>
<!-- Generator: Adobe Illustrator 24.0.1, SVG Export Plug-In . SVG Version: 6.00 Build 0)  -->
<svg version="1.1" id="레이어_1" xmlns="http://www.w3.org/2000/svg" xmlns:xlink="http://www.w3.org/1999/xlink" x="0px"
	 y="0px" viewBox="0 0 80 80" style="enable-background:new 0 0 80 80;" xml:space="preserve">
<style type="text/css">
	.st0{fill-rule:evenodd;clip-rule:evenodd;fill:#FAE300;}
	.st1{fill-rule:evenodd;clip-rule:evenodd;fill:#391B1B;}
	.st2{filter:url(#Adobe_OpacityMaskFilter);}
	.st3{fill-rule:evenodd;clip-rule:evenodd;fill:#FFFFFF;}
	.st4{mask:url(#btn_kakao-c_1_);fill-rule:evenodd;clip-rule:evenodd;fill:#391B1B;}
</style>
<g transform="translate(4 4)">
	<circle class="st0" cx="36" cy="36" r="36"/>
	<g transform="translate(16 18)">
		<path class="st1" d="M14.6,17.3h2.7L16,13.5c0,0,0,0,0,0L14.6,17.3z"/>
		<g transform="translate(0 .07)">
			<defs>
				<filter id="Adobe_OpacityMaskFilter" filterUnits="userSpaceOnUse" x="0" y="0" width="39.9" height="36.7">
					<feColorMatrix  type="matrix" values="1 0 0 0 0  0 1 0 0 0  0 0 1 0 0  0 0 0 1 0"/>
				</filter>
			</defs>
			<mask maskUnits="userSpaceOnUse" x="0" y="0" width="39.9" height="36.7" id="btn_kakao-c_1_">
				<g class="st2">
					<polygon id="btn_kakao-b_1_" class="st3" points="0,0 39.9,0 39.9,36.7 0,36.7 					"/>
				</g>
			</mask>
			<path class="st4" d="M33.1,20.7L30.2,17l-0.6,0.6V20c0,0.6-0.5,1.1-1.1,1.1c-0.6,0-1.1-0.5-1.1-1.1v-7.9c0-0.6,0.5-1.1,1.1-1.1
				c0.6,0,1.1,0.5,1.1,1.1v2.8l3.4-3.4c0.4-0.4,1-0.4,1.3,0c0.4,0.4,0.4,1,0,1.3l-2.7,2.7l3,4c0.3,0.4,0.2,1-0.2,1.3
				C34,21.2,33.4,21.1,33.1,20.7z M22,21c-0.5,0-0.9-0.4-0.9-0.9c0-0.1,0-0.1,0-0.2c0-0.1,0-0.1,0-0.2v-7.7c0-0.6,0.5-1.1,1.1-1.1
				c0.6,0,1.1,0.5,1.1,1.1v7.1h2.7c0.5,0,0.9,0.4,0.9,0.9c0,0.5-0.4,0.9-0.9,0.9H22z M18.5,20.5L18,19h-4l-0.5,1.4
				c-0.2,0.5-0.7,0.8-1.2,0.6c-0.5-0.2-0.8-0.7-0.6-1.2l2.9-7.7c0,0,0-0.1,0.1-0.1c0.1-0.6,0.7-1,1.4-1c0.6,0,1.2,0.4,1.4,0.8
				c0,0,0,0,0,0l2.9,8c0.2,0.5-0.1,1.1-0.6,1.2C19.2,21.2,18.6,21,18.5,20.5z M10.1,20.1c0,0.3-0.1,0.5-0.3,0.7
				c-0.2,0.2-0.4,0.3-0.7,0.3H9c-0.3,0-0.5-0.1-0.7-0.3C8.1,20.6,8,20.4,8,20.1v-7H6.1c-0.5,0-1-0.4-1-1c0-0.5,0.4-1,1-1h5.8
				c0.5,0,1,0.4,1,1c0,0.5-0.4,1-1,1h-1.8V20.1z M0,15.8c0,5.7,3.8,10.6,9.5,13.4C9,30.8,8,34.9,7.7,35.7c-0.3,1.1,0.4,1.1,0.8,0.8
				c0.3-0.2,5.5-3.7,7.7-5.2c1.2,0.2,2.4,0.3,3.7,0.3c11,0,20-7.1,20-15.8C39.9,7.1,31,0,20,0C8.9,0,0,7.1,0,15.8z"/>
		</g>
	</g>
</g>
</svg>
